<?xml version="1.0" encoding="UTF-8"?>
<svg id="Layer_2" data-name="Layer 2" xmlns="http://www.w3.org/2000/svg" viewBox="0 0 287.49 174.37">
  <defs>
    <style>
      .cls-1 {
        opacity: .33;
      }

      .cls-1, .cls-2, .cls-3, .cls-4, .cls-5, .cls-6, .cls-7, .cls-8 {
        fill-rule: evenodd;
      }

      .cls-1, .cls-2, .cls-6 {
        fill: #fff;
      }

      .cls-1, .cls-6 {
        isolation: isolate;
      }

      .cls-3 {
        fill: #3665c9;
      }

      .cls-4 {
        fill: #1e62e3;
      }

      .cls-5 {
        fill: #579dee;
      }

      .cls-6 {
        opacity: .17;
      }

      .cls-7 {
        fill: #4a87e2;
      }

      .cls-8 {
        fill: #87d1f1;
      }
    </style>
  </defs>
  <path class="cls-8" d="m141.12,26.25c-7.31,4.78-14.79,9.44-22.44,13.99-.48,16.9-.64,33.8-.48,50.72q-.7-.15-1.91-.87c-7.74-3.07-15.06-6.83-21.95-11.29l-2.39-4.09c-.65-16.45-.66-32.88-.01-49.33,6.5-4.35,13.34-8.15,20.53-11.37,7.48-4.35,15.12-8.57,22.92-12.68,1.77-.99,3.68-1.43,5.73-1.31.43,8.78.43,17.52,0,26.23Z"/>
  <path class="cls-5" d="m167.81,38.86c-.06.17-.18.29-.18.29-.19.17-.47.22-.72.22-.1.17-.28.45-.59.7-.46.36-.95.47-1.17.52-.21.13-.43.27-.64.42-.9.61-1.69,1.24-2.37,1.86-6.69,3.06-13.05,6.56-19.1,10.49-1.25,16.21-1.25,32.54,0,48.97.32.71,2.38.16,1.59.57-1.65.83-1.21.45-1.23.47-1.04.91-.8.94-2.27.28-7.86-4.03-15.5-8.25-22.92-12.68-.16-16.91,0-33.81.48-50.72,7.65-4.55,15.14-9.21,22.44-13.99,2.57-1.18,5.12-2.34,7.64-3.5,5.12-3.5,10.52-6.71,16.23-9.62.89,1.04,1.2,2.2.95,3.5.55,5.88,2.02,21.73,1.85,22.23h0Z"/>
  <path class="cls-4" d="m191.73,53.36c-.06,8.87-.4,17.33-.95,25.35-10.01,5.42-19.85,10.78-29.85,16.02-.03.02-.06.03-.09.04-3.71,1.96-7.46,3.89-11.24,5.81-1.74.88-3.5,1.77-5.25,2.64-.55.27-1.11.55-1.66.82.08-1.15.13-2.49.18-3.98.08-2.08.12-4.43.15-6.98.02-1.76.04-3.59.04-5.49.03-6.18,0-12.93-.03-19.06v-15.18c7.55-5.14,16.86-8.95,23.87-13.99.46-.18.89-.52,1.28-.73.95-.53,2.71-1.48,3.5-1.89,6.44-4.06,13.31-5.74,19.38-9.71.48,8.32.74,17.1.68,26.33Z"/>
  <path class="cls-4" d="m143.03,53.35v15.18c-.03-6.03-.05-11.46,0-15.18Z"/>
  <path class="cls-7" d="m143.03,53.35v34.1c-.08,1.88-.08,3.76,0,5.63-.03,2.54-.08,4.9-.15,6.98-1.09-15.67-1.03-31.24.16-46.71Z"/>
  <path class="cls-3" d="m143.06,87.59c0,1.9-.02,3.73-.04,5.49-.07-1.87-.07-3.75,0-5.63,0,.04.02.1.03.14Z"/>
  <path class="cls-3" d="m160.84,94.77c-3.63,2.04-7.34,3.96-11.13,5.8-.04,0-.08,0-.11,0,3.78-1.91,7.53-3.85,11.24-5.81Z"/>
  <path class="cls-2" d="m181.23,121.56v10.49h7.64c3.39,1.28,4.51,3.6,3.34,7-2.77,2.39-6.11,3.26-10.03,2.62-.16,5.83,0,11.66.48,17.49.48,1.02,1.27,1.75,2.39,2.19,7.23.14,9.62,3.2,7.16,9.18-1.26,1.74-3.01,2.75-5.25,3.06-10.07,2.33-16.27-1.02-18.62-10.06-.16-7.01-.64-14.01-1.43-20.99-6.74.1-9.45-2.82-8.12-8.74.78-1.15,1.89-1.74,3.34-1.75h5.73v-12.24c.37-3.4,2.44-5.15,6.21-5.25,5.18-.07,7.56,2.26,7.16,7Z"/>
  <path class="cls-6" d="m167.86,119.81v12.24h-5.73c1.36-.83,2.94-1.12,4.77-.87-.31-3.96.02-7.76.95-11.37Z"/>
  <path class="cls-1" d="m181.23,121.56c.94,3.03,1.26,6.23.95,9.62,2.44-.26,4.67.03,6.68.87h-7.64v-10.49Z"/>
  <path class="cls-2" d="m4.56,131.18c4.98-.59,8.32,1.15,10.03,5.25,6.62-6.67,13.63-6.97,21.01-.87,1.38,1.55,2.33,3.3,2.86,5.25,1.16,9.31,1.47,18.63.95,27.98-1.39,4.86-4.74,6.46-10.03,4.81-1.75-.44-2.86-1.46-3.34-3.06-1.2-8.39-1.83-16.84-1.91-25.36-1.17-3.84-3.39-4.42-6.68-1.75-.93,1.65-1.57,3.4-1.91,5.25-.19,7.62-.67,15.2-1.43,22.73-4.01,3.46-7.99,3.46-11.94,0-1.96-11.56-2.6-23.22-1.91-34.98.57-2.4,2.01-4.15,4.3-5.25Z"/>
  <path class="cls-2" d="m212.75,131.18c10.28-1.78,18.39,1.14,24.35,8.74,1.51,8.1,1.83,16.26.95,24.48-1.7,3.59-4.4,6.37-8.12,8.31-20.78,5.23-30.96-1.91-30.56-21.42-1.59-10.24,2.87-16.95,13.37-20.11Zm3.82,10.49c1.94-.14,3.85,0,5.73.44.6.66,1.08,1.38,1.43,2.19.64,6.41.64,12.83,0,19.24-2.98,2.03-5.84,1.74-8.59-.87-.64-6.41-.64-12.83,0-19.24.69-.47,1.17-1.06,1.43-1.75Z"/>
  <path class="cls-2" d="m61.86,131.18c7.53-.79,14.53.52,21.01,3.93,3.67,3.36,5.25,7.44,4.77,12.24-.16,1.9-.32,3.79-.48,5.68l-1.43,1.31c-7.55,1.22-15.19,1.66-22.92,1.31-.1,3.59,1.17,6.65,3.82,9.18,3.62.53,6.48-.64,8.59-3.5,3.43-1.52,6.93-1.67,10.5-.44,2.64,3.26,2.31,6.32-.95,9.18-8.15,4.07-16.74,4.95-25.78,2.62-5.44-2.06-8.79-5.71-10.03-10.93-.64-6.71-.64-13.4,0-20.11,2.12-5.88,6.42-9.38,12.89-10.49Zm3.82,9.62c6.52-.73,9.07,1.9,7.64,7.87h-10.5c-.54-3.19.41-5.81,2.86-7.87Z"/>
  <path class="cls-2" d="m253.34,131.05c2.8-.11,5.11.59,6.95,2.12,1.69,1.4,4.26,1.43,6.09.19,4.99-3.38,10.27-2.84,15.84,1.6.48.38.87.86,1.15,1.38,3.41,6.41,4.71,13.25,3.88,20.52,0,.08-.02.16-.02.24-.14,3.73-.28,7.46-.42,11.18-.04.94-.37,1.85-1.01,2.59-3.32,3.81-6.96,4.14-10.93.99-.94-.74-1.55-1.79-1.69-2.91-.95-7.6-1.5-15.23-1.67-22.89-.03-1.51-.84-2.98-2.28-3.71-1.65-.83-3.23-.23-4.72,1.8-.45.61-.7,1.33-.77,2.07-.23,2.29-.98,4.5-1.12,6.78-.06.91,0,1.23,0,1.85,0,5.28.84,10.57-.97,15.69-.43,1.23-1.41,2.25-2.7,2.76-2.59,1.01-5.08.85-7.46-.49-1.26-.71-2.04-1.96-2.19-3.31-1-8.94-1.71-17.93-2.15-26.96-.01-.28,0-.57.04-.85.33-2.22.75-4.41,1.27-6.59.07-.28.15-.55.28-.81.41-.86.96-1.58,1.66-2.16.8-.67,1.87-1.02,2.95-1.07Z"/>
  <path class="cls-2" d="m96.24,131.18c3.6-.59,6.31.58,8.12,3.5,2.92,6.28,5.47,12.69,7.64,19.24,1.74-4.32,3.33-8.69,4.77-13.12,3.46-4.95,7.6-5.53,12.41-1.75,2.6,4.82,4.83,9.77,6.68,14.86,2.23-6.71,4.62-13.41,7.16-20.11,6.1-4.21,10.24-2.89,12.41,3.93-3.46,9.79-7.11,19.55-10.98,29.29-2.31,7.41-6.77,8.87-13.37,4.37-2.61-6-4.84-12.12-6.68-18.36-2.54,6.38-5.08,12.79-7.64,19.24-3.76,2.51-7.27,2.21-10.5-.87-4.46-9.91-8.91-19.82-13.37-29.73-.64-2.62-.64-5.25,0-7.87,1.1-1,2.21-1.87,3.34-2.62Z"/>
</svg>